<?xml version="1.0" encoding="UTF-8" ?>
<!DOCTYPE svg PUBLIC "-//W3C//DTD SVG 1.1//EN" "http://www.w3.org/Graphics/SVG/1.1/DTD/svg11.dtd">
<svg width="1751pt" height="759pt" viewBox="0 0 1751 759" version="1.1" xmlns="http://www.w3.org/2000/svg">
<g id="#b1ada6ff">
</g>
<g id="#1b1917ff">
<path fill="#1b1917" opacity="1.00" d=" M 1105.37 136.75 C 1112.25 136.39 1119.16 136.11 1126.06 136.55 C 1132.16 136.84 1137.67 139.76 1143.47 141.37 C 1149.34 143.06 1154.95 145.55 1160.12 148.80 C 1165.21 152.05 1171.43 153.94 1175.15 158.97 C 1177.33 161.83 1179.66 164.86 1180.38 168.46 C 1179.79 174.01 1178.41 179.47 1176.75 184.79 C 1176.05 188.82 1176.89 193.12 1174.90 196.89 C 1171.54 203.84 1170.09 211.52 1166.85 218.52 C 1162.02 229.78 1154.93 239.82 1148.43 250.13 C 1144.95 257.11 1139.43 262.72 1135.51 269.41 C 1132.87 273.64 1129.37 277.25 1126.73 281.48 C 1123.36 287.02 1118.23 291.14 1114.34 296.28 C 1108.80 303.66 1100.62 308.70 1095.93 316.78 C 1091.79 324.00 1082.69 326.21 1078.31 333.17 C 1075.93 338.96 1075.99 345.40 1074.34 351.41 C 1079.81 352.55 1085.45 352.80 1090.83 354.39 C 1096.56 355.99 1102.38 357.30 1108.00 359.28 C 1112.11 360.77 1116.79 360.87 1120.35 363.66 C 1122.96 365.63 1125.87 367.29 1128.14 369.68 C 1129.97 373.00 1130.58 376.98 1133.28 379.84 C 1137.40 384.13 1137.06 390.43 1138.29 395.87 C 1138.69 404.32 1138.83 413.04 1136.16 421.18 C 1133.33 429.36 1129.84 437.32 1125.86 445.02 C 1123.74 449.31 1119.95 452.89 1119.44 457.86 C 1119.03 463.43 1114.78 467.39 1111.48 471.47 C 1107.41 476.39 1103.60 481.64 1098.43 485.50 C 1092.46 490.08 1087.74 496.24 1081.07 499.89 C 1077.56 501.79 1074.00 503.62 1070.36 505.26 C 1063.01 508.48 1054.81 507.93 1047.02 508.93 C 1042.47 509.50 1037.65 510.39 1033.25 508.59 C 1029.73 507.18 1026.16 505.96 1022.50 504.98 C 1018.43 503.84 1015.11 500.13 1015.30 495.77 C 1021.08 495.82 1027.22 495.41 1032.26 492.31 C 1036.13 489.45 1035.54 484.19 1035.78 479.97 C 1035.65 473.00 1042.82 469.05 1044.02 462.49 C 1045.72 451.93 1044.58 440.82 1048.63 430.71 C 1050.93 425.07 1050.24 418.85 1051.65 413.02 C 1052.53 408.48 1054.57 404.12 1054.50 399.43 C 1054.45 396.50 1054.79 393.56 1055.72 390.78 C 1057.70 385.04 1057.49 378.90 1058.42 372.97 C 1058.73 369.23 1059.64 364.59 1056.45 361.77 C 1053.00 359.87 1048.65 359.99 1045.50 357.51 C 1043.98 355.56 1043.14 353.20 1042.14 350.99 C 1046.21 348.16 1049.94 344.89 1053.77 341.74 C 1057.18 338.91 1061.42 336.88 1063.97 333.14 C 1068.73 324.79 1067.32 314.73 1070.71 305.95 C 1072.67 300.53 1072.32 294.65 1073.68 289.09 C 1076.35 278.46 1077.23 267.49 1078.81 256.67 C 1079.68 253.45 1081.26 250.37 1081.19 246.94 C 1081.16 239.66 1083.69 232.74 1084.63 225.58 C 1085.61 218.39 1086.83 211.23 1087.76 204.02 C 1088.91 198.62 1090.76 192.67 1095.10 189.01 C 1100.33 185.46 1105.88 189.53 1110.59 191.89 C 1110.60 196.32 1110.79 200.87 1109.22 205.09 C 1106.81 211.63 1105.18 218.42 1102.55 224.88 C 1101.47 227.52 1100.38 230.24 1100.34 233.14 C 1100.11 235.54 1100.43 238.14 1099.19 240.32 C 1098.07 242.50 1096.54 244.48 1095.84 246.85 C 1095.38 249.69 1096.04 252.60 1095.46 255.44 C 1094.97 257.84 1094.02 260.11 1093.30 262.44 C 1091.33 268.23 1092.28 274.59 1090.10 280.34 C 1087.97 285.85 1087.88 291.85 1086.09 297.46 C 1084.76 301.67 1084.15 306.05 1084.00 310.45 C 1086.93 309.52 1090.05 308.55 1092.09 306.09 C 1094.75 303.06 1097.75 300.37 1100.71 297.63 C 1104.14 294.49 1104.41 289.15 1108.30 286.38 C 1112.21 283.23 1114.15 278.51 1116.51 274.23 C 1118.64 270.02 1123.12 267.96 1126.76 265.29 C 1126.71 263.38 1126.24 261.24 1127.51 259.60 C 1130.53 255.18 1134.31 251.25 1136.65 246.38 C 1139.28 241.00 1143.99 236.78 1145.69 230.92 C 1149.38 219.70 1156.76 209.86 1158.74 198.05 C 1160.46 189.93 1163.99 181.49 1161.68 173.15 C 1160.49 168.55 1155.70 166.81 1151.82 165.08 C 1144.41 161.97 1136.93 158.98 1129.16 156.93 C 1123.21 155.21 1116.96 155.99 1110.87 155.53 C 1106.99 155.09 1103.31 156.93 1100.77 159.76 C 1094.82 165.80 1093.95 174.62 1091.49 182.34 C 1090.71 182.68 1089.16 183.35 1088.39 183.69 C 1087.17 178.21 1087.68 172.58 1088.38 167.07 C 1086.99 164.96 1085.38 162.96 1084.53 160.55 C 1083.82 157.71 1084.97 154.83 1086.24 152.32 C 1088.82 147.45 1092.38 143.11 1096.54 139.50 C 1098.91 137.28 1102.29 137.01 1105.37 136.75 M 1078.29 368.38 C 1075.36 368.57 1071.55 369.01 1069.95 371.77 C 1068.69 378.30 1069.17 385.07 1067.71 391.58 C 1066.32 397.89 1065.36 404.29 1063.73 410.54 C 1062.22 416.25 1062.68 422.29 1060.80 427.91 C 1059.06 433.00 1059.62 438.44 1058.81 443.69 C 1057.96 451.46 1055.69 458.97 1053.42 466.42 C 1051.07 473.95 1054.30 482.04 1051.59 489.50 C 1050.33 492.60 1051.34 495.88 1052.12 498.95 C 1055.99 498.24 1059.88 497.28 1063.36 495.37 C 1074.66 489.23 1085.39 481.41 1092.92 470.83 C 1097.23 465.46 1101.98 460.31 1104.88 453.98 C 1107.32 448.23 1112.20 443.70 1113.43 437.43 C 1114.29 433.36 1115.75 429.47 1117.86 425.88 C 1119.47 423.37 1118.54 420.35 1118.52 417.59 C 1118.16 413.69 1121.43 410.65 1121.58 406.82 C 1122.40 400.70 1119.03 395.27 1117.12 389.71 C 1115.84 386.64 1115.03 382.98 1112.10 381.02 C 1105.01 376.67 1097.33 372.95 1088.93 372.20 C 1085.01 372.02 1082.06 368.92 1078.29 368.38 Z" />
<path fill="#1b1917" opacity="1.00" d=" M 821.60 228.33 C 823.35 220.84 832.56 215.86 839.67 219.27 C 841.72 223.18 841.28 227.74 841.51 232.00 C 841.52 236.98 843.31 241.93 842.18 246.91 C 841.44 249.68 842.15 252.45 843.19 255.04 C 845.24 259.91 843.44 265.44 845.92 270.23 C 844.64 274.02 843.23 277.87 843.40 281.93 C 843.53 292.62 843.94 303.49 841.24 313.94 C 839.69 319.47 840.99 325.22 840.28 330.83 C 839.41 337.91 838.23 344.95 837.69 352.06 C 837.56 354.69 836.40 357.09 835.24 359.40 C 835.45 361.82 835.92 364.27 835.55 366.70 C 834.79 370.18 833.03 373.46 833.08 377.10 C 833.12 381.42 833.94 385.73 833.50 390.06 C 833.24 393.19 832.15 396.17 831.68 399.28 C 831.36 401.22 832.81 402.82 833.54 404.51 C 835.71 401.46 838.47 398.57 839.31 394.81 C 839.92 386.60 844.67 379.63 846.46 371.73 C 847.86 365.37 850.09 359.25 852.47 353.20 C 855.74 344.93 856.12 335.77 860.10 327.76 C 861.86 324.28 863.99 320.90 864.70 317.00 C 865.68 312.12 867.98 307.65 869.30 302.87 C 872.20 293.56 876.67 284.82 879.67 275.54 C 882.12 267.93 885.42 260.53 890.01 253.96 C 893.05 249.65 894.48 244.20 898.55 240.66 C 901.69 238.67 905.47 238.00 909.05 237.18 C 910.56 237.02 912.35 236.28 913.69 237.39 C 916.79 239.61 917.51 243.61 918.84 246.94 C 919.76 249.80 921.60 252.27 922.50 255.14 C 921.42 257.81 919.25 259.90 918.30 262.64 C 916.83 268.73 915.09 274.84 915.36 281.17 C 915.06 288.02 912.81 294.59 912.44 301.43 C 912.07 307.70 909.98 313.72 909.65 319.99 C 909.30 325.51 909.83 331.14 908.44 336.54 C 907.22 341.93 904.53 346.99 904.37 352.60 C 904.20 356.80 904.25 361.01 904.04 365.21 C 902.53 367.22 900.93 369.35 900.85 371.97 C 900.23 378.59 898.43 385.07 898.48 391.75 C 898.52 397.16 896.50 402.34 896.60 407.76 C 896.65 414.17 896.46 420.65 894.60 426.84 C 893.22 431.05 893.32 435.49 893.42 439.86 C 893.58 444.17 892.48 448.37 891.77 452.59 C 891.20 455.64 892.01 458.70 892.08 461.76 C 891.66 465.16 889.68 468.23 889.83 471.73 C 889.91 479.18 889.10 486.61 889.30 494.06 C 889.44 495.63 889.26 497.64 890.79 498.63 C 895.16 502.15 900.18 505.67 902.26 511.09 C 902.80 515.81 903.73 521.42 900.37 525.35 C 896.92 529.88 891.98 533.02 888.70 537.70 C 886.89 540.07 884.68 543.38 881.20 542.52 C 877.04 541.00 872.94 538.31 870.59 534.49 C 869.69 529.31 871.25 524.13 871.37 518.94 C 871.53 511.82 873.18 504.85 873.89 497.79 C 874.83 491.26 873.05 484.70 874.02 478.17 C 875.09 471.12 877.29 464.22 877.38 457.03 C 877.41 449.31 878.85 441.67 878.63 433.94 C 878.44 428.67 880.87 423.74 880.75 418.48 C 880.89 414.37 880.23 410.11 881.64 406.15 C 884.18 399.16 883.96 391.61 884.44 384.29 C 884.32 376.75 886.30 369.43 887.40 362.03 C 888.10 357.25 887.03 352.27 888.75 347.63 C 890.92 341.59 890.25 335.08 891.30 328.83 C 891.55 323.26 892.61 317.80 893.69 312.36 C 894.78 307.13 893.91 301.70 895.25 296.51 C 896.76 290.56 896.55 284.39 896.16 278.32 C 893.17 282.82 889.56 287.10 887.85 292.29 C 888.12 293.88 888.79 295.37 889.37 296.88 C 887.34 298.28 885.02 299.67 884.39 302.23 C 881.68 309.88 879.12 317.58 876.21 325.15 C 874.33 334.61 872.24 344.11 868.69 353.12 C 866.93 357.68 863.52 361.55 862.72 366.46 C 861.60 373.17 859.42 379.65 858.44 386.39 C 857.90 390.84 854.55 394.30 854.02 398.75 C 852.56 407.97 849.90 416.92 847.79 425.99 C 846.58 431.20 843.57 435.81 842.86 441.17 C 842.40 444.92 839.04 447.12 836.36 449.30 C 832.42 452.28 828.35 456.14 823.01 455.66 C 818.07 456.32 813.54 452.79 811.65 448.46 C 811.16 445.88 812.31 443.38 812.96 440.93 C 814.59 435.78 815.34 430.33 814.86 424.94 C 814.18 419.08 816.94 413.57 816.77 407.72 C 816.68 402.35 819.34 397.41 819.33 392.05 C 818.94 382.79 822.99 373.79 821.03 364.51 C 818.69 367.32 817.17 370.69 816.55 374.28 C 815.36 380.95 812.26 387.06 810.89 393.68 C 808.94 402.88 805.22 411.56 803.01 420.68 C 801.64 426.01 799.31 431.07 798.42 436.54 C 797.77 440.84 796.47 445.00 794.93 449.07 C 793.33 453.30 793.23 457.98 791.16 462.04 C 789.65 465.28 787.61 468.47 787.58 472.15 C 787.36 474.29 787.75 476.65 786.51 478.55 C 784.63 481.55 782.39 484.40 781.41 487.87 C 779.01 495.70 776.74 503.70 772.40 510.72 C 770.30 513.44 768.30 516.23 766.96 519.41 C 766.02 521.69 763.71 522.82 761.83 524.21 C 762.17 526.55 763.58 529.17 762.39 531.43 C 760.25 533.45 755.93 535.05 753.91 532.04 C 751.90 529.87 753.19 526.78 754.32 524.52 C 756.27 521.06 758.64 517.86 760.71 514.47 C 762.43 511.61 765.17 509.46 766.67 506.47 C 767.84 502.33 766.90 497.80 768.80 493.82 C 770.91 489.05 771.33 483.76 773.25 478.93 C 776.18 472.06 777.24 464.61 778.90 457.38 C 780.86 451.01 784.98 445.40 785.91 438.69 C 787.18 430.20 790.69 422.29 792.25 413.87 C 793.08 409.65 794.46 405.58 795.66 401.46 C 797.06 396.94 796.22 391.87 798.73 387.69 C 800.88 384.07 801.56 379.91 802.31 375.84 C 803.16 370.99 806.55 367.01 807.12 362.10 C 807.75 355.40 810.44 349.13 811.35 342.47 C 811.99 337.18 814.82 332.54 816.34 327.51 C 817.85 323.00 818.69 318.32 819.29 313.63 C 820.09 306.89 822.17 300.36 822.55 293.57 C 823.01 284.91 824.17 276.32 825.22 267.72 C 825.97 263.03 821.77 259.50 821.46 255.01 C 822.12 251.14 824.88 247.95 825.41 244.05 C 825.68 238.49 822.02 233.73 821.60 228.33 Z" />
<path fill="#1b1917" opacity="1.00" d=" M 1428.74 225.65 C 1433.38 221.92 1440.33 223.99 1444.45 227.53 C 1449.17 232.33 1447.29 239.44 1446.22 245.27 C 1441.12 248.50 1438.17 253.92 1434.90 258.80 C 1432.54 262.98 1433.73 268.01 1433.58 272.59 C 1431.97 273.32 1430.38 274.05 1428.80 274.78 C 1428.01 277.59 1427.49 280.56 1425.97 283.09 C 1424.74 285.41 1421.78 284.61 1419.66 284.89 C 1415.65 289.28 1413.04 294.63 1412.14 300.52 C 1409.39 307.19 1409.27 314.48 1407.01 321.28 C 1405.03 328.09 1403.03 334.89 1401.07 341.70 C 1400.10 345.16 1400.97 348.99 1399.22 352.24 C 1398.04 354.79 1396.29 357.30 1396.54 360.24 C 1396.43 364.80 1398.13 369.59 1396.00 373.93 C 1392.19 381.96 1392.95 391.10 1390.26 399.45 C 1387.43 407.33 1389.01 415.84 1387.58 423.97 C 1388.99 423.48 1390.42 422.98 1391.84 422.45 C 1395.19 409.75 1399.96 397.28 1406.99 386.15 C 1408.76 382.35 1409.11 377.96 1411.49 374.42 C 1415.31 368.87 1417.08 362.30 1420.03 356.31 C 1422.11 351.24 1424.01 345.10 1429.71 343.06 C 1434.17 341.89 1438.96 342.16 1443.50 342.87 C 1447.56 343.59 1449.90 347.26 1452.22 350.30 C 1451.85 352.61 1451.21 354.98 1451.66 357.33 C 1452.54 360.05 1454.34 362.33 1455.88 364.70 C 1454.73 369.27 1453.97 373.93 1453.66 378.64 C 1453.27 384.18 1451.35 389.46 1450.76 394.97 C 1450.04 399.62 1450.83 404.54 1448.91 408.96 C 1447.05 413.58 1443.68 417.92 1444.30 423.18 C 1443.98 426.26 1445.30 429.03 1447.62 431.03 C 1453.29 423.83 1456.78 415.33 1461.40 407.49 C 1463.46 403.02 1465.58 398.52 1468.97 394.88 C 1472.84 390.71 1475.47 385.62 1477.55 380.37 C 1479.31 375.74 1482.97 372.18 1484.81 367.60 C 1486.21 364.19 1486.91 360.56 1487.79 357.00 C 1488.94 351.67 1491.62 346.79 1492.49 341.38 C 1494.20 332.88 1493.70 323.45 1499.10 316.17 C 1502.74 311.25 1503.01 303.93 1508.65 300.61 C 1514.75 297.02 1521.96 299.91 1528.53 300.06 C 1528.19 305.48 1528.85 310.87 1530.04 316.15 C 1531.24 321.34 1526.95 325.45 1524.61 329.60 C 1520.51 335.29 1519.71 342.48 1516.40 348.57 C 1513.44 353.94 1511.67 359.83 1509.74 365.62 C 1508.04 371.64 1507.47 377.92 1505.66 383.92 C 1503.81 390.01 1503.79 396.58 1501.01 402.40 C 1499.17 406.14 1497.84 410.12 1497.46 414.29 C 1497.23 417.15 1495.67 419.60 1494.44 422.10 C 1493.17 424.34 1494.14 426.96 1494.26 429.36 C 1495.07 435.30 1493.46 441.21 1491.60 446.81 C 1489.60 451.95 1491.17 457.50 1490.56 462.83 C 1490.30 468.80 1487.72 474.33 1487.06 480.24 C 1486.54 483.68 1486.74 487.17 1486.61 490.64 C 1486.55 495.04 1482.53 498.25 1482.68 502.69 C 1482.62 506.84 1482.42 510.99 1481.85 515.11 C 1481.31 517.81 1482.41 520.39 1483.59 522.77 C 1481.23 526.53 1478.69 530.46 1478.37 535.01 C 1478.04 540.33 1478.45 545.67 1478.79 550.98 C 1479.04 554.03 1477.76 556.88 1476.78 559.69 C 1474.32 566.46 1476.08 573.76 1474.90 580.73 C 1474.29 586.68 1471.17 591.92 1469.70 597.64 C 1465.80 615.30 1459.53 632.59 1449.90 647.96 C 1446.26 653.84 1440.54 657.91 1435.59 662.59 C 1429.59 668.19 1421.77 671.02 1414.55 674.61 C 1410.36 676.70 1406.10 679.07 1401.33 679.36 C 1397.17 679.64 1392.97 680.06 1388.99 681.35 C 1384.97 682.55 1381.22 684.67 1377.02 685.21 C 1372.87 685.67 1368.67 685.24 1364.55 685.88 C 1360.90 686.42 1357.31 687.39 1353.62 687.55 C 1347.44 687.91 1341.37 685.92 1335.20 686.56 C 1329.06 687.20 1322.79 688.27 1316.66 687.15 C 1313.52 686.18 1309.83 681.81 1312.81 678.84 C 1314.12 677.22 1316.24 676.59 1318.27 676.52 C 1324.49 676.16 1330.71 676.98 1336.81 678.14 C 1340.10 678.72 1343.51 679.64 1346.83 678.65 C 1352.01 677.21 1357.40 677.06 1362.74 676.60 C 1368.49 676.15 1373.77 673.60 1379.42 672.62 C 1383.12 671.93 1386.93 671.22 1390.12 669.08 C 1393.64 666.79 1397.35 664.61 1401.57 663.95 C 1409.73 662.82 1414.72 655.44 1421.80 651.97 C 1429.16 648.29 1434.83 642.16 1438.87 635.08 C 1445.26 627.07 1447.32 616.84 1451.94 607.89 C 1456.18 600.05 1456.45 590.86 1456.93 582.16 C 1457.19 578.34 1459.03 574.85 1459.35 571.05 C 1459.65 563.84 1463.33 557.27 1463.48 550.02 C 1463.79 539.71 1466.09 529.07 1462.67 519.04 C 1464.28 516.44 1466.33 513.97 1467.01 510.92 C 1467.37 507.44 1466.75 503.91 1467.43 500.45 C 1468.47 494.92 1469.27 489.36 1470.02 483.78 C 1470.82 478.75 1470.33 473.58 1471.59 468.61 C 1473.71 459.62 1476.36 450.40 1474.80 441.10 C 1474.07 436.83 1477.08 433.20 1477.38 429.05 C 1477.71 425.37 1477.67 421.66 1478.13 417.99 C 1477.70 417.79 1477.30 417.59 1476.92 417.39 C 1475.81 420.54 1474.45 423.70 1471.91 425.96 C 1468.69 428.81 1467.78 433.13 1465.96 436.84 C 1464.12 440.66 1462.18 444.44 1460.12 448.14 C 1458.17 451.91 1454.01 453.53 1450.60 455.65 C 1447.50 457.28 1444.44 459.79 1440.74 459.49 C 1434.86 459.21 1429.26 456.76 1424.59 453.29 C 1421.44 450.84 1422.64 446.46 1422.90 443.07 C 1423.75 438.27 1422.64 433.23 1424.40 428.58 C 1425.95 424.01 1427.64 419.48 1428.79 414.78 C 1430.16 409.62 1428.58 404.00 1430.98 399.05 C 1433.48 393.78 1431.18 387.76 1433.37 382.40 C 1434.59 379.36 1433.93 376.10 1433.40 372.99 C 1430.73 373.36 1427.72 373.80 1426.15 376.27 C 1423.60 379.20 1427.13 383.58 1424.56 386.48 C 1422.23 389.49 1418.89 392.09 1418.55 396.17 C 1417.90 401.75 1414.30 406.33 1413.23 411.80 C 1412.54 415.19 1410.62 418.09 1408.90 421.02 C 1406.78 424.43 1407.86 428.99 1405.20 432.15 C 1402.94 435.73 1398.41 438.84 1399.29 443.58 C 1399.46 445.24 1399.82 446.88 1400.13 448.53 C 1396.50 453.81 1395.39 460.23 1392.86 466.03 C 1390.57 471.10 1392.90 477.53 1388.94 481.91 C 1385.37 486.04 1381.55 489.94 1378.22 494.27 C 1376.80 495.63 1375.46 498.05 1373.18 497.59 C 1369.55 496.99 1366.79 493.96 1365.20 490.81 C 1363.80 488.09 1365.25 485.07 1365.77 482.32 C 1368.35 472.81 1363.92 462.60 1368.29 453.41 C 1371.98 445.05 1370.37 435.50 1374.03 427.16 C 1374.88 424.88 1376.03 422.74 1377.08 420.54 C 1376.06 419.65 1375.07 418.74 1374.10 417.83 C 1375.19 411.96 1375.23 405.88 1377.30 400.23 C 1379.04 395.54 1377.39 390.36 1379.39 385.71 C 1382.92 376.45 1382.50 366.40 1384.73 356.85 C 1386.41 349.86 1386.01 342.49 1388.44 335.66 C 1391.45 327.24 1391.49 318.14 1394.51 309.72 C 1396.42 300.06 1397.89 290.19 1402.07 281.18 C 1403.98 277.37 1402.80 272.79 1404.96 269.08 C 1406.85 265.60 1408.93 262.13 1409.70 258.18 C 1410.50 254.05 1412.40 250.25 1415.07 247.00 C 1418.31 243.18 1418.99 238.00 1421.78 233.90 C 1423.78 230.91 1426.00 228.01 1428.74 225.65 Z" />
<path fill="#1b1917" opacity="1.00" d=" M 238.95 245.58 C 243.47 245.22 248.00 245.61 252.53 245.58 C 251.69 250.37 251.76 255.22 251.59 260.06 C 251.44 264.70 247.92 268.14 246.27 272.25 C 243.74 278.28 243.72 284.92 242.12 291.19 C 241.00 295.65 239.84 300.11 238.33 304.46 C 236.71 309.15 232.93 312.86 231.93 317.80 C 231.26 320.71 231.25 323.90 229.56 326.48 C 227.46 329.98 224.71 333.16 223.41 337.09 C 222.04 341.31 221.61 345.77 220.25 349.99 C 218.43 356.03 213.40 360.56 212.16 366.85 C 211.05 372.08 207.74 376.47 206.53 381.66 C 205.23 387.25 202.53 392.38 201.01 397.91 C 198.96 405.15 193.94 411.11 192.10 418.42 C 190.64 424.58 186.52 429.59 184.30 435.45 C 182.88 439.32 180.25 442.52 177.38 445.43 C 175.09 447.59 175.27 450.97 174.70 453.83 C 173.81 461.54 169.68 468.27 167.31 475.54 C 165.77 480.39 161.64 483.86 160.19 488.76 C 158.64 493.60 155.76 497.83 152.98 502.03 C 148.51 508.57 144.48 515.41 139.85 521.85 C 137.36 525.60 134.54 529.43 133.72 533.94 C 134.30 535.23 135.10 536.41 135.86 537.61 C 139.10 536.61 142.38 535.58 145.80 535.46 C 151.05 535.17 156.48 536.16 161.57 534.42 C 169.15 531.88 176.34 528.29 183.93 525.77 C 191.48 523.48 197.28 517.88 204.07 514.12 C 208.69 510.92 214.54 510.32 219.16 507.13 C 222.77 504.75 226.20 502.09 229.96 499.94 C 234.79 497.13 240.55 496.30 245.11 492.99 C 248.24 490.87 251.72 487.90 255.79 489.05 C 257.98 489.10 258.57 491.53 258.71 493.32 C 258.86 497.17 256.90 501.31 253.25 502.93 C 244.94 506.89 237.50 512.39 229.23 516.41 C 225.06 518.32 222.62 522.37 219.11 525.12 C 215.46 527.51 211.04 528.32 207.24 530.43 C 198.73 535.29 189.83 539.49 180.62 542.86 C 172.24 546.18 163.93 550.24 154.86 551.21 C 150.25 551.68 145.69 552.46 141.18 553.47 C 135.11 554.89 128.82 554.28 122.68 555.22 C 118.88 556.01 115.48 553.74 111.90 552.93 C 108.42 552.01 104.11 551.31 102.47 547.62 C 102.09 544.34 103.61 541.13 105.57 538.59 C 108.64 534.61 114.22 534.24 117.77 530.85 C 121.24 527.59 123.94 523.63 127.18 520.16 C 130.14 516.86 133.77 513.99 135.58 509.82 C 138.14 503.39 143.55 498.61 145.89 492.08 C 148.70 484.63 152.66 477.69 156.42 470.70 C 159.09 465.58 159.89 459.72 162.77 454.70 C 164.97 450.77 166.14 446.36 168.44 442.49 C 171.35 437.46 172.97 431.83 175.67 426.70 C 179.16 419.89 180.90 412.39 182.80 405.03 C 184.19 399.59 188.67 395.51 189.62 389.91 C 190.45 385.66 191.33 381.39 193.12 377.42 C 197.51 366.93 200.91 356.06 203.60 345.02 C 205.10 338.12 209.59 332.36 211.05 325.45 C 212.42 319.04 214.27 312.74 216.43 306.55 C 218.40 301.05 219.28 295.19 221.81 289.89 C 224.70 283.68 227.03 277.07 227.42 270.18 C 227.73 263.00 229.11 255.74 232.29 249.26 C 233.47 246.73 236.36 245.78 238.95 245.58 Z" />
<path fill="#1b1917" opacity="1.00" d=" M 1317.62 295.62 C 1320.21 291.74 1325.07 288.29 1329.92 289.97 C 1335.62 291.71 1340.90 298.34 1338.50 304.41 C 1336.64 309.96 1338.27 315.97 1336.41 321.52 C 1335.38 324.30 1335.90 327.22 1336.65 329.99 C 1334.89 331.94 1333.44 334.57 1330.86 335.47 C 1322.57 336.93 1314.18 330.42 1312.53 322.37 C 1311.91 319.56 1313.55 317.00 1314.36 314.42 C 1316.69 308.39 1314.54 301.43 1317.62 295.62 Z" />
<path fill="#1b1917" opacity="1.00" d=" M 599.21 325.00 C 605.93 321.38 614.08 322.71 620.93 325.27 C 622.82 325.77 623.16 327.95 623.87 329.50 C 626.43 337.41 629.50 345.30 630.12 353.67 C 630.06 358.46 627.88 362.91 627.39 367.65 C 626.87 374.58 627.70 381.54 627.44 388.47 C 626.27 393.50 624.29 398.36 623.99 403.59 C 621.65 415.42 623.12 427.67 620.33 439.45 C 618.25 446.60 618.54 454.14 617.86 461.49 C 618.22 465.53 616.80 469.32 614.85 472.78 C 619.09 479.57 617.47 488.75 623.27 494.71 C 625.34 496.89 627.68 499.65 630.98 499.55 C 634.35 499.56 637.76 498.93 640.88 497.63 C 644.15 496.19 646.30 493.21 648.76 490.75 C 652.48 486.78 657.70 484.49 660.96 480.04 C 665.87 473.22 673.57 469.35 680.58 465.09 C 681.15 466.97 682.04 469.04 681.17 470.99 C 678.52 478.12 674.91 485.04 669.63 490.58 C 665.94 494.57 661.75 498.05 658.01 501.99 C 652.14 508.38 643.58 511.00 635.69 513.95 C 630.14 516.10 624.26 514.55 618.59 514.03 C 615.76 513.67 612.88 513.80 610.11 513.12 C 608.43 509.92 607.63 506.30 605.58 503.28 C 602.34 498.62 600.53 493.19 598.97 487.79 C 597.87 484.56 598.88 481.20 599.48 477.99 C 601.05 471.24 600.09 464.14 602.35 457.51 C 604.16 452.16 604.31 446.49 604.31 440.89 C 604.24 435.03 606.13 429.31 605.48 423.43 C 604.86 417.29 607.11 411.38 607.47 405.30 C 607.52 398.01 607.28 390.71 607.27 383.42 C 607.24 377.98 609.58 372.57 608.10 367.15 C 606.20 360.55 609.50 353.60 606.92 347.11 C 603.03 352.47 597.47 356.41 594.19 362.26 C 589.98 367.26 587.53 373.36 583.88 378.73 C 580.26 384.15 579.32 390.76 576.42 396.52 C 574.72 399.86 574.38 403.61 574.45 407.30 C 578.42 407.54 582.40 407.71 586.38 407.87 C 586.88 408.56 587.39 409.27 587.90 409.98 C 585.92 411.89 584.14 414.44 581.26 414.97 C 577.92 415.68 574.48 415.60 571.10 415.78 C 568.32 420.24 566.86 425.34 566.35 430.54 C 565.58 438.91 560.50 445.98 559.03 454.17 C 558.30 458.80 555.54 462.63 553.60 466.78 C 551.93 470.20 552.95 474.05 553.40 477.63 C 546.98 483.32 536.48 485.04 529.52 479.42 C 527.46 473.59 529.06 467.13 531.96 461.87 C 534.29 457.82 534.58 453.12 534.48 448.57 C 538.65 445.00 538.24 439.15 539.69 434.31 C 541.74 427.17 544.38 420.16 545.84 412.86 C 546.36 410.48 544.64 408.50 543.50 406.61 C 540.01 401.91 539.63 395.53 535.24 391.41 C 534.96 387.62 536.73 384.31 539.42 381.78 C 538.33 378.26 537.24 374.66 537.31 370.94 C 537.15 365.89 539.96 361.47 541.51 356.83 C 543.03 352.05 546.55 348.25 548.02 343.46 C 548.86 341.26 549.31 338.77 550.97 337.00 C 555.92 332.20 563.08 330.09 569.88 330.76 C 573.39 331.39 576.52 333.81 578.11 337.00 C 579.45 339.96 579.53 343.27 579.90 346.45 C 580.31 346.46 581.12 346.49 581.53 346.50 C 584.35 341.78 587.69 337.39 591.83 333.76 C 594.79 331.26 596.30 327.50 599.21 325.00 M 550.58 373.20 C 549.04 379.49 549.16 386.08 550.07 392.46 C 551.77 391.59 554.21 391.13 554.39 388.81 C 556.21 381.26 557.95 373.56 557.70 365.74 C 554.95 367.76 551.33 369.54 550.58 373.20 Z" />
<path fill="#1b1917" opacity="1.00" d=" M 392.62 339.45 C 396.56 338.93 399.60 341.94 402.63 343.95 C 400.56 348.11 398.90 352.46 398.02 357.03 C 397.15 362.00 393.07 365.46 391.41 370.10 C 389.95 374.12 388.77 378.25 387.98 382.46 C 387.25 386.25 388.14 390.48 385.93 393.88 C 383.92 397.19 381.21 400.23 380.53 404.16 C 379.43 409.47 378.76 414.88 377.02 420.03 C 375.04 425.61 375.85 431.84 373.18 437.21 C 370.45 443.17 367.16 449.22 367.26 455.98 C 367.12 467.31 360.36 477.02 357.97 487.81 C 357.40 496.75 353.32 504.84 351.27 513.45 C 349.59 519.47 349.12 525.79 346.89 531.66 C 344.21 538.69 343.27 546.26 340.37 553.22 C 339.06 556.52 337.40 559.69 336.39 563.11 C 334.92 567.78 334.76 572.72 333.52 577.44 C 332.03 582.99 327.88 587.29 326.15 592.74 C 324.06 599.78 319.41 605.58 315.85 611.90 C 311.76 617.55 309.16 624.22 304.37 629.36 C 298.92 635.06 295.34 642.19 290.31 648.22 C 286.28 652.90 283.48 658.81 278.12 662.20 C 273.58 664.93 270.92 669.81 266.36 672.49 C 258.30 677.48 251.68 685.03 242.28 687.60 C 235.26 689.53 229.63 694.76 222.39 696.02 C 214.01 697.60 205.40 697.34 197.07 699.23 C 197.98 699.84 198.91 700.45 199.86 701.04 C 191.50 700.47 183.08 699.98 174.97 697.67 C 172.85 696.65 171.46 694.62 169.88 692.97 C 173.83 691.06 177.95 689.18 182.39 688.85 C 186.08 688.91 189.72 690.48 193.43 689.54 C 203.01 687.12 213.34 687.18 222.18 682.27 C 227.91 678.90 234.58 677.14 239.64 672.68 C 244.71 668.15 251.37 666.01 256.49 661.56 C 261.66 657.01 267.58 653.21 271.73 647.60 C 278.35 638.92 285.57 630.70 291.79 621.71 C 298.93 612.36 305.71 602.62 310.79 591.97 C 312.32 588.91 314.27 586.09 315.96 583.13 C 318.57 578.57 318.72 573.17 320.11 568.21 C 322.05 560.70 326.32 554.07 328.38 546.60 C 332.85 532.78 335.97 518.59 339.25 504.45 C 341.69 495.20 344.27 485.87 344.54 476.25 C 344.56 471.73 347.31 467.95 348.50 463.74 C 349.41 460.73 349.59 457.58 349.86 454.46 C 348.91 454.44 347.97 454.42 347.03 454.40 C 343.36 460.68 340.99 467.62 336.93 473.69 C 331.85 483.83 323.71 491.86 316.62 500.56 C 313.60 503.82 310.83 507.70 306.68 509.57 C 301.18 509.96 295.78 507.60 291.20 504.73 C 286.43 501.70 286.12 495.32 286.54 490.26 C 287.48 487.90 289.96 486.54 291.52 484.58 C 294.63 481.42 294.60 476.73 296.00 472.78 C 297.37 469.53 300.21 467.14 301.41 463.80 C 302.59 460.35 302.95 456.68 304.19 453.26 C 305.98 447.92 309.86 443.41 310.70 437.74 C 311.13 434.11 313.44 431.21 314.99 428.03 C 316.93 424.03 315.86 419.37 317.44 415.27 C 318.44 412.48 320.18 409.91 320.49 406.91 C 320.91 402.68 320.19 398.35 321.33 394.20 C 322.15 390.75 324.16 387.39 323.42 383.74 C 322.82 380.49 321.86 377.32 321.28 374.08 C 316.23 374.71 311.01 375.88 306.86 378.95 C 303.50 381.65 301.05 386.59 296.10 386.27 C 292.67 384.64 289.91 381.54 288.59 377.99 C 289.08 373.82 291.10 369.93 293.56 366.58 C 296.97 362.03 302.76 360.55 307.81 358.61 C 312.96 356.85 317.89 353.55 323.57 354.18 C 329.28 354.58 336.26 354.96 339.68 360.32 C 345.57 368.47 343.49 379.12 341.62 388.25 C 340.80 396.57 336.54 403.94 334.96 412.08 C 333.68 418.86 330.10 424.93 328.98 431.75 C 328.49 434.39 327.95 437.10 326.51 439.43 C 321.47 447.90 320.77 458.14 315.82 466.65 C 313.82 470.50 311.07 473.87 308.36 477.23 C 308.46 478.56 308.68 479.87 309.03 481.17 C 311.46 479.30 313.96 477.41 315.64 474.79 C 320.02 467.95 324.46 461.03 327.11 453.30 C 328.12 450.20 329.80 447.37 332.00 444.98 C 335.56 441.09 338.11 436.45 341.13 432.16 C 343.59 428.61 344.61 424.34 346.41 420.47 C 348.50 415.92 350.88 411.51 353.08 407.02 C 356.04 400.90 360.39 395.38 361.81 388.60 C 363.17 382.36 364.73 376.15 367.27 370.28 C 370.29 363.57 371.10 355.76 376.04 350.02 C 378.20 347.46 379.80 344.45 382.12 342.02 C 385.31 340.29 389.04 339.79 392.62 339.45 Z" />
<path fill="#1b1917" opacity="1.00" d=" M 1205.78 363.82 C 1212.42 357.29 1222.28 356.46 1231.09 355.56 C 1238.13 354.48 1244.41 358.45 1250.29 361.71 C 1254.78 364.21 1255.86 369.59 1258.41 373.65 C 1260.38 377.31 1263.81 380.55 1263.75 384.99 C 1263.95 390.13 1263.80 395.60 1261.07 400.14 C 1258.63 404.23 1256.09 408.37 1255.01 413.07 C 1252.79 423.19 1249.34 432.99 1247.10 443.11 C 1246.27 447.71 1246.38 452.42 1246.66 457.07 C 1246.95 461.94 1249.72 466.10 1251.49 470.52 C 1252.87 474.07 1255.80 476.61 1258.55 479.11 C 1265.57 475.41 1269.32 468.21 1275.06 463.07 C 1277.85 460.34 1280.97 457.56 1281.93 453.61 C 1282.61 450.77 1284.13 448.27 1286.12 446.15 C 1288.91 436.78 1295.08 428.27 1294.85 418.10 C 1297.44 415.66 1300.34 413.35 1301.86 410.04 C 1303.53 407.12 1304.53 403.34 1307.80 401.76 C 1311.79 399.94 1316.31 400.48 1320.58 400.38 C 1325.31 406.33 1325.74 414.51 1323.28 421.48 C 1320.24 429.51 1315.46 437.03 1314.50 445.73 C 1313.77 451.28 1311.37 456.39 1309.47 461.60 C 1308.52 464.05 1307.17 466.71 1304.57 467.72 C 1300.94 468.39 1296.99 466.68 1293.59 468.56 C 1289.57 470.66 1285.32 472.84 1282.69 476.69 C 1279.49 481.12 1275.40 484.78 1271.93 488.99 C 1268.21 493.32 1262.30 495.12 1256.73 494.72 C 1253.64 494.87 1251.28 492.68 1248.76 491.27 C 1245.56 489.21 1241.68 488.87 1238.04 488.14 C 1236.77 484.32 1235.09 480.62 1232.65 477.40 C 1229.66 473.38 1227.87 468.66 1226.46 463.90 C 1224.37 464.80 1221.73 465.26 1220.68 467.53 C 1217.84 472.76 1215.26 478.16 1211.46 482.79 C 1212.24 484.31 1213.04 485.85 1213.84 487.38 C 1209.84 488.41 1205.79 489.82 1202.87 492.88 C 1197.97 498.08 1190.89 501.46 1183.71 501.31 C 1178.05 499.83 1173.20 495.89 1169.48 491.49 C 1163.95 482.21 1165.68 470.95 1165.74 460.67 C 1167.27 449.66 1168.60 438.41 1173.22 428.17 C 1177.38 418.93 1179.39 408.85 1184.13 399.87 C 1185.95 396.44 1188.23 393.25 1189.57 389.59 C 1193.00 379.98 1198.13 370.72 1205.78 363.82 M 1227.47 371.68 C 1225.65 371.78 1223.86 372.07 1222.12 372.46 C 1216.37 373.39 1215.30 380.19 1211.81 383.90 C 1205.68 390.73 1202.11 399.27 1198.60 407.63 C 1196.61 412.94 1192.20 416.97 1190.63 422.48 C 1189.16 427.58 1187.12 432.49 1185.51 437.55 C 1182.63 446.85 1184.35 456.75 1182.12 466.17 C 1181.40 470.56 1180.09 475.90 1183.42 479.60 C 1184.71 481.34 1187.16 482.44 1189.20 481.27 C 1190.98 480.00 1192.15 478.08 1193.38 476.31 C 1197.21 470.28 1201.69 464.70 1206.29 459.25 C 1210.44 454.45 1212.37 448.22 1216.42 443.35 C 1219.87 439.07 1220.24 433.38 1222.40 428.48 C 1225.15 420.46 1228.82 412.83 1232.11 405.04 C 1234.47 397.14 1237.14 389.31 1241.26 382.12 C 1243.36 379.27 1240.79 376.11 1238.42 374.48 C 1235.19 372.42 1231.27 371.49 1227.47 371.68 Z" />
<path fill="#1b1917" opacity="1.00" d=" M 446.99 373.10 C 450.04 369.77 454.55 367.82 459.02 367.43 C 464.17 366.87 467.85 373.20 473.06 371.07 C 479.73 369.04 486.81 367.20 493.78 368.87 C 499.14 374.03 500.84 381.84 501.33 389.02 C 501.92 402.63 497.66 415.75 493.61 428.56 C 491.20 435.74 491.26 443.43 489.21 450.71 C 487.55 456.65 486.32 463.54 489.71 469.13 C 491.94 471.66 495.70 471.70 498.74 472.62 C 500.25 476.66 501.63 481.13 500.26 485.42 C 499.00 487.77 496.36 488.86 494.01 489.82 C 488.16 491.96 481.75 493.64 475.53 492.22 C 473.82 491.94 473.00 490.39 472.52 488.91 C 470.29 482.12 467.38 475.30 467.69 468.00 C 467.10 458.67 469.77 449.62 472.08 440.70 C 473.64 435.07 472.57 429.02 474.67 423.50 C 475.89 420.18 476.47 416.67 476.59 413.15 C 476.81 407.54 478.70 402.23 480.26 396.91 C 478.10 397.57 475.67 398.15 474.33 400.15 C 469.84 406.17 466.33 412.83 462.01 418.97 C 458.21 424.38 456.37 430.79 453.92 436.85 C 450.83 445.30 446.05 453.04 443.69 461.77 C 440.09 467.60 439.12 474.49 435.80 480.44 C 433.36 485.29 433.37 490.99 430.83 495.82 C 428.93 499.40 426.71 502.79 424.62 506.27 C 422.89 506.40 421.05 506.14 419.42 506.82 C 417.16 508.57 415.69 511.09 413.98 513.32 C 409.27 512.15 404.56 509.54 402.98 504.65 C 401.58 502.16 403.84 500.01 405.01 498.00 C 406.99 495.17 408.21 491.91 409.90 488.92 C 411.90 485.45 415.21 482.64 415.94 478.54 C 416.83 474.26 417.91 470.00 420.07 466.17 C 422.49 461.92 422.19 456.83 424.18 452.43 C 426.44 447.26 429.02 442.19 430.45 436.70 C 431.96 430.48 436.49 425.62 438.37 419.56 C 439.92 414.77 441.18 409.89 443.16 405.25 C 444.58 402.30 443.68 399.03 443.30 395.96 C 444.86 393.31 447.17 390.66 446.68 387.36 C 446.85 382.64 444.31 377.45 446.99 373.10 Z" />
<path fill="#1b1917" opacity="1.00" d=" M 1298.44 677.78 C 1301.03 677.10 1303.75 677.35 1306.41 677.28 C 1306.38 679.76 1306.83 683.06 1303.92 684.13 C 1300.47 684.12 1297.31 682.47 1294.25 681.08 C 1295.59 679.93 1296.86 678.62 1298.44 677.78 Z" />
</g>
</svg>
