<?xml version="1.0" encoding="UTF-8" standalone="no"?>
<!DOCTYPE svg PUBLIC "-//W3C//DTD SVG 1.1//EN" "http://www.w3.org/Graphics/SVG/1.1/DTD/svg11.dtd">
<svg width="100%" height="100%" viewBox="0 0 10000 10000" version="1.1" xmlns="http://www.w3.org/2000/svg" xmlns:xlink="http://www.w3.org/1999/xlink" xml:space="preserve" xmlns:serif="http://www.serif.com/" style="fill-rule:evenodd;clip-rule:evenodd;stroke-linejoin:round;stroke-miterlimit:2;">
    <g id="LOGO" transform="matrix(12.7228,0,0,12.7228,1346.89,-512.151)">
        <g id="蓝色" transform="matrix(1,0,0,1,-0.00928714,0)">
            <path d="M205.93,119.9C210.61,123.21 214.5,127.43 218.47,131.52C253.67,166.67 288.8,201.87 323.98,237.02C326.69,239.85 330.07,242.18 332.05,245.61C332.85,249.01 332.43,252.55 332.48,256C332.29,299.75 332.61,343.5 332.32,387.25C329.76,385.27 327.36,383.08 325.31,380.58C320.06,374.22 313.67,368.96 308.13,362.88C301.61,356.1 295.76,348.63 288.56,342.56C288,366.37 288.48,390.19 288.32,414C288.24,452.77 288.47,491.53 288.2,530.29C278.23,530.57 268.25,531.34 258.27,531.1C258.12,422.4 258.26,313.7 258.2,205C258.12,196.24 258.58,187.46 257.7,178.72C249.18,184.74 242.74,193.07 234.86,199.84C225.03,208.93 215.88,218.72 206.38,228.15C205.89,225.13 205.53,222.09 205.52,219.03C205.67,192.69 205.54,166.34 205.59,140C205.55,133.3 205.42,126.58 205.93,119.9Z" style="fill:rgb(30,32,125);fill-rule:nonzero;"/>
            <path d="M295.61,371.99C295.66,368.77 296.1,365.59 296.58,362.42C319.76,384.55 341.88,407.79 364.84,430.17C366.42,431.86 368.38,433.62 368.54,436.09C368.96,440.38 368.64,444.7 368.67,449C368.62,477.31 368.7,505.62 368.63,533.93C362.74,533.84 356.89,533.25 351.03,532.7C339.68,532.31 328.36,531.31 317.02,530.66C310.11,530.51 303.2,530.58 296.29,530.51C295.22,522.38 295.73,514.17 295.66,506C295.62,461.33 295.71,416.66 295.61,371.99Z" style="fill:rgb(30,32,125);fill-rule:nonzero;"/>
        </g>
        <g id="黑色">
            <path d="M219.32,238.32C226.03,231.78 232.25,224.71 239.49,218.73C239.92,247.81 239.55,276.91 239.67,306C239.64,380.87 239.74,455.75 239.62,530.62C230.91,532.89 221.9,531.93 213.04,532.54C195.87,534.89 178.57,536.23 161.53,539.48C148.2,541.21 135.28,545.1 121.98,546.95C121.49,525.31 121.91,503.65 121.77,482C121.76,434.63 121.8,387.26 121.74,339.9C121.64,333.72 127.61,330.36 131.29,326.3C160.54,296.87 190.29,267.95 219.32,238.32Z" style="fill:rgb(13,163,240);fill-rule:nonzero;"/>
            <path d="M434.38,350.37C439.98,344.97 445.03,338.97 451.22,334.2C451.96,350.45 451.35,366.74 451.55,383C451.43,438.06 451.79,493.12 451.37,548.18C444.74,547.26 438.12,546.21 431.68,544.39C415.39,540.15 398.56,538.97 381.97,536.53C380.16,536.37 378.36,536.31 376.56,536.22C376.56,497.48 376.59,458.74 376.54,420C376.63,416.24 376.13,412.39 376.95,408.69C378.79,405.13 382.11,402.68 384.84,399.84C401.41,383.41 417.85,366.85 434.38,350.37Z" style="fill:rgb(13,163,240);fill-rule:nonzero;"/>
            <path d="M222.97,542.18C243.9,539.88 264.98,540.41 286,540.33C308.96,540.33 331.97,539.95 354.83,542.31C376.24,543.63 397.51,546.62 418.64,550.27C438.19,553.38 457.51,557.84 476.48,563.5C496.88,569.09 516.51,577.16 535.24,586.95C540.28,589.56 545.66,592.12 549.1,596.84C547.1,596.68 545.11,596.6 543.14,596.29C509.59,588.08 475.28,583.5 441.06,579.13C429.93,577.23 418.6,577.23 407.43,575.65C396.94,575.06 386.53,573.37 376.01,573.39C363.66,572.93 351.38,571.31 339.01,571.49C330.66,571.66 322.35,570.55 314,570.73C303,570.87 292,570.4 281,570.57C268.33,570.93 255.65,570.39 243,571.38C232.99,570.97 223.08,572.79 213.07,572.58C202,572.67 191.04,574.64 179.97,574.72C170.28,575.47 160.66,576.85 150.94,577.26C140.87,577.62 131.07,580.43 121,580.84C106.92,581.67 93.22,586.41 79.02,585.45C81.09,585.65 83.16,585.89 85.23,586.14C67.9,588.6 50.71,592.1 33.67,596.08C30.88,596.7 28.01,596.83 25.16,596.71C33.47,590 42.95,584.81 52.78,580.68C85.13,565.6 120.03,556.78 155.07,550.6C159.34,549.58 163.64,548.71 168.02,548.34C186.27,545.78 204.54,543.06 222.97,542.18Z" style="fill-rule:nonzero;"/>
        </g>
    </g>
    <g transform="matrix(1,0,0,1,-2170.82,1355.5)">
        <text x="5521.83px" y="6569.51px" style="font-family:'STBaoliTC-Regular', 'Baoli TC';font-size:833.333px;">舜顺建设</text>
        <text x="3730.78px" y="7107.6px" style="font-family:'ArialMT', 'Arial', sans-serif;font-size:400px;">Anhui Shunshun Construction Co., Ltd.</text>
    </g>
</svg>
