<?xml version="1.0" standalone="no"?><!DOCTYPE svg PUBLIC "-//W3C//DTD SVG 1.1//EN" "http://www.w3.org/Graphics/SVG/1.1/DTD/svg11.dtd"><svg t="1716128621032" class="icon" viewBox="0 0 1024 1024" version="1.1" xmlns="http://www.w3.org/2000/svg" p-id="1653" xmlns:xlink="http://www.w3.org/1999/xlink" width="256" height="256"><path d="M284.011936 422.684681a24.524425 24.524425 0 0 0-33.216627 10.554816l-20.178324 38.804471a24.6486 24.6486 0 1 0 43.771442 22.661811l20.178325-39.114907a24.21399 24.21399 0 0 0-10.554816-32.906191zM590.412036 552.446831a24.524425 24.524425 0 0 0-33.216627 10.554816l-20.178324 39.114906a24.524425 24.524425 0 0 0 10.865251 32.906192 23.903554 23.903554 0 0 0 32.906192-10.554816l20.178324-38.804471a24.524425 24.524425 0 0 0-10.554816-33.216627zM219.130861 798.001521a55.257566 55.257566 0 0 0-41.287957 0 18.626146 18.626146 0 0 0-9.623508 10.865252 22.351375 22.351375 0 0 0 2.483486 18.005274 8.381766 8.381766 0 0 0 2.17305 2.483487h4.346101a4.656536 4.656536 0 0 0 2.17305 0h2.483486c0.620872 0 0 0 0 0h1.552179a7.760894 7.760894 0 0 0 3.104358-6.519152 8.692201 8.692201 0 0 0 0-2.793921v-3.414794a33.527063 33.527063 0 0 1 19.867889 0 17.384403 17.384403 0 0 1 8.381765 10.554816 9.933944 9.933944 0 0 0 9.313073 7.140023H227.202191a9.623509 9.623509 0 0 0 6.519151-12.417431 36.320985 36.320985 0 0 0-14.590481-23.903554zM289.910216 831.83902a35.700113 35.700113 0 0 0-28.560091 6.208715 9.933944 9.933944 0 0 0-2.793922 13.969609 10.24438 10.24438 0 0 0 13.96961 2.483487 17.073967 17.073967 0 0 1 13.038302-3.104358 31.043577 31.043577 0 0 1 16.14266 12.106995v1.552179a13.038302 13.038302 0 0 0-2.793922 4.966972v5.898279l1.862614 1.862615a10.24438 10.24438 0 0 0 6.829587 3.414793 8.381766 8.381766 0 0 0 3.725229 0 21.109632 21.109632 0 0 0 12.417431-12.106995 18.626146 18.626146 0 0 0 0-14.900916 57.120181 57.120181 0 0 0-33.837498-22.351375z" p-id="1654" fill="#13227a"></path><path d="M834.724983 332.658309a7.760894 7.760894 0 0 1 0-2.17305c22.351375-106.789903 44.70275-261.386914-9.313073-279.392189-38.804471-11.796559-98.097702 54.326259-148.388295 124.174306a757.463267 757.463267 0 0 0-85.369836-29.180961c6.829587-71.400226 2.483486-134.108251-31.043576-144.663067-41.287957-12.727866-106.169032 62.087153-158.32224 137.523044a293.672234 293.672234 0 0 0-40.35665 14.590481c-99.649881-6.519151-262.628657 2.793922-310.435765 124.174306-14.280045 36.010549-12.727866 63.639332 5.587844 81.955042a98.408138 98.408138 0 0 0 71.710662 21.730503h13.969609a567.787014 567.787014 0 0 0-93.13073 264.801708 11.796559 11.796559 0 0 0 0 6.519151 332.78714 332.78714 0 0 0 3.72523 66.433254 271.94173 271.94173 0 0 0 59.914102 131.003893 173.223157 173.223157 0 0 0-4.966972 84.748964 109.273389 109.273389 0 0 0 53.705387 70.779354 124.174306 124.174306 0 0 0 65.501947 18.31571 146.836117 146.836117 0 0 0 67.054125-17.384403 210.475449 210.475449 0 0 0 54.015823-40.977521h18.31571a344.583699 344.583699 0 0 0 158.011805-39.735778c124.174306-62.087153 223.824187-192.159739 276.908702-315.402737 36.010549 36.010549 74.815019 63.949768 108.652518 63.949768a42.5297 42.5297 0 0 0 9.002637 0c27.318347-4.346101 46.565365-27.318347 57.120181-67.985433 28.249655-112.688183-58.67236-209.854577-141.869145-273.804345z m-18.936581-252.384277c19.247017 5.89828 16.763531 93.13073-2.793922 202.093683a255.178199 255.178199 0 0 0-108.962954-93.130729c48.427979-67.054125 93.441165-114.550797 111.756876-108.962954zM551.607566 30.914746c13.038302 4.346101 15.832224 47.186236 9.933944 109.273389A343.962828 343.962828 0 0 0 444.507227 132.737677C491.072591 68.787909 533.602291 24.70603 551.607566 30.914746z m-217.305036 137.523044z m-257.351249 170.73967c-9.002637-9.313073-8.692201-26.38704 0-50.601029C111.409651 202.585724 221.614347 183.338706 310.08854 182.717835a289.947005 289.947005 0 0 0-73.26284 72.952405 907.093306 907.093306 0 0 0-75.435891 93.130729c-38.183599 5.587844-69.227176 4.035665-84.438528-9.623509z m203.335426 640.73942a103.995981 103.995981 0 0 1-104.306417 0 82.886349 82.886349 0 0 1-40.046214-52.463645 124.174306 124.174306 0 0 1 0-52.463644l8.692202 8.381766a112.067311 112.067311 0 0 0 2.793921 47.807107 67.674997 67.674997 0 0 0 33.837499 41.598393 70.779354 70.779354 0 0 0 56.809745 5.89828 102.133367 102.133367 0 0 0 40.356649-25.455733c10.554816 2.793922 21.109632 5.277408 31.043577 7.140022a162.978777 162.978777 0 0 1-29.180962 19.557454z m-107.100339-75.435891a331.855833 331.855833 0 0 0 31.043576 19.867889l7.760895 4.035665a321.921888 321.921888 0 0 0 31.043576 13.969609 55.257566 55.257566 0 0 1-16.14266 9.002637 40.977521 40.977521 0 0 1-33.837498-3.725229 39.735778 39.735778 0 0 1-19.867889-24.21399 73.573276 73.573276 0 0 1-2.17305-18.936581z m53.394952-2.483486l-6.208716-3.104358a248.348612 248.348612 0 0 1-139.075223-185.019716 289.947005 289.947005 0 0 1-3.725229-52.463644 416.604797 416.604797 0 0 1 237.793796 38.494034 341.479342 341.479342 0 0 1 189.365817 203.024991 297.087027 297.087027 0 0 1-278.150445-0.931307z m304.537485-13.348738a375.006404 375.006404 0 0 0-203.956298-215.752857 450.131859 450.131859 0 0 0-248.348612-41.287957c11.486123-113.61949 75.435891-243.38164 180.984051-356.380258l1.862615-2.483486a262.007786 262.007786 0 0 1 217.305036-113.929926 334.028883 334.028883 0 0 1 86.922014 11.796559c209.233706 54.015823 271.320859 136.281301 242.760768 313.850558a633.288961 633.288961 0 0 1-277.529574 404.187367z m416.294361-289.636569c-7.450458 28.249655-18.626146 43.771443-33.527062 46.254929h-4.966973c-25.455733 0-62.087153-27.628783-96.235087-64.881075a473.724978 473.724978 0 0 0 24.834861-93.13073 431.195278 431.195278 0 0 0 5.277408-110.825568c67.054125 59.603667 126.657792 137.523044 104.616853 222.582444z m-108.652518-248.348612v4.966972z" p-id="1655" fill="#13227a"></path></svg>